{
	"asset":{
		"generator":"Khronos glTF Blender I/O v3.5.30",
		"version":"2.0"
	},
	"extensionsUsed":[
		"KHR_materials_specular"
	],
	"scene":0,
	"scenes":[
		{
			"name":"Scene",
			"nodes":[
				0
			]
		}
	],
	"nodes":[
		{
			"mesh":0,
			"name":"12248_Bird_v1_L2",
			"scale":[
				0.10000000149011612,
				0.10000000149011612,
				0.10000000149011612
			]
		}
	],
	"materials":[
		{
			"doubleSided":true,
			"extensions":{
				"KHR_materials_specular":{
					"specularColorFactor":[
						0.5759999752044677,
						0.5759999752044677,
						0.5759999752044677
					]
				}
			},
			"name":"12248_Bird_v1",
			"pbrMetallicRoughness":{
				"baseColorTexture":{
					"index":0
				},
				"metallicFactor":0,
				"roughnessFactor":0.8326680064201355
			}
		}
	],
	"meshes":[
		{
			"name":"12248_Bird_v1_L2",
			"primitives":[
				{
					"attributes":{
						"POSITION":0,
						"TEXCOORD_0":1,
						"NORMAL":2
					},
					"indices":3,
					"material":0
				}
			]
		}
	],
	"textures":[
		{
			"sampler":0,
			"source":0
		}
	],
	"images":[
		{
			"bufferView":4,
			"mimeType":"image/jpeg",
			"name":"12248_Bird_v1_diff"
		}
	],
	"accessors":[
		{
			"bufferView":0,
			"componentType":5126,
			"count":9582,
			"max":[
				14.22700023651123,
				56.805599212646484,
				20.123300552368164
			],
			"min":[
				-14.22700023651123,
				0.3366999924182892,
				-36.38399887084961
			],
			"type":"VEC3"
		},
		{
			"bufferView":1,
			"componentType":5126,
			"count":9582,
			"type":"VEC2"
		},
		{
			"bufferView":2,
			"componentType":5126,
			"count":9582,
			"type":"VEC3"
		},
		{
			"bufferView":3,
			"componentType":5123,
			"count":52512,
			"type":"SCALAR"
		}
	],
	"bufferViews":[
		{
			"buffer":0,
			"byteLength":114984,
			"byteOffset":0,
			"target":34962
		},
		{
			"buffer":0,
			"byteLength":76656,
			"byteOffset":114984,
			"target":34962
		},
		{
			"buffer":0,
			"byteLength":114984,
			"byteOffset":191640,
			"target":34962
		},
		{
			"buffer":0,
			"byteLength":105024,
			"byteOffset":306624,
			"target":34963
		},
		{
			"buffer":0,
			"byteLength":719633,
			"byteOffset":411648
		}
	],
	"samplers":[
		{
			"magFilter":9729,
			"minFilter":9987
		}
	],
	"buffers":[
		{
			"byteLength":1131284,
			"uri":"data:application/octet-stream;base64,"
		}
	]
}
